<?xml version="1.0" encoding="UTF-8" standalone="no"?>
<svg
   xmlns:dc="http://purl.org/dc/elements/1.1/"
   xmlns:cc="http://creativecommons.org/ns#"
   xmlns:rdf="http://www.w3.org/1999/02/22-rdf-syntax-ns#"
   xmlns:svg="http://www.w3.org/2000/svg"
   xmlns="http://www.w3.org/2000/svg"
   xmlns:sodipodi="http://sodipodi.sourceforge.net/DTD/sodipodi-0.dtd"
   xmlns:inkscape="http://www.inkscape.org/namespaces/inkscape"
   width="135.46666mm"
   height="135.46666mm"
   viewBox="0 0 135.46666 135.46666"
   version="1.1"
   id="svg2980"
   inkscape:version="1.0.1 (3bc2e813f5, 2020-09-07)"
   sodipodi:docname="eol_qgis.svg">
  <defs
     id="defs2974" />
  <sodipodi:namedview
     id="base"
     pagecolor="#ffffff"
     bordercolor="#666666"
     borderopacity="1.0"
     inkscape:pageopacity="0.0"
     inkscape:pageshadow="2"
     inkscape:zoom="0.35"
     inkscape:cx="-254.00001"
     inkscape:cy="370.28569"
     inkscape:document-units="mm"
     inkscape:current-layer="layer1"
     inkscape:document-rotation="0"
     showgrid="false"
     inkscape:window-width="1920"
     inkscape:window-height="827"
     inkscape:window-x="0"
     inkscape:window-y="31"
     inkscape:window-maximized="1" />
  <metadata
     id="metadata2977">
    <rdf:RDF>
      <cc:Work
         rdf:about="">
        <dc:format>image/svg+xml</dc:format>
        <dc:type
           rdf:resource="http://purl.org/dc/dcmitype/StillImage" />
        <dc:title></dc:title>
      </cc:Work>
    </rdf:RDF>
  </metadata>
  <g
     inkscape:label="Layer 1"
     inkscape:groupmode="layer"
     id="layer1"
     transform="translate(-59.26667,-50.195244)">
    <circle
       fill="param(fill) #FFF"
       cx="127"
       cy="117.92857"
       r="67.73333"
       id="remplir1"
       inkscape:export-xdpi="95.296425"
       inkscape:export-ydpi="95.296425" />
    <polygon
       style="fill:#ffffff"
       points="283,457 268.947,222 241.053,222 227,457 "
       id="polygon14-7-4-7-2"
       inkscape:export-xdpi="95.296425"
       inkscape:export-ydpi="95.296425"
       transform="matrix(0.26458333,0,0,0.26458333,59.266702,50.195223)" />
    <path
       style="fill:#ffffff;stroke-width:0.264583"
       d="m 125.30912,60.062331 -5.5565,44.440209 c -0.9668,4.6019 2.545,8.9281 7.2474,8.9281 v 0 c 4.7025,0 8.2143,-4.3262 7.2475,-8.9281 l -5.5565,-44.440209 c -0.2487,-1.990196 -3.1332,-1.990196 -3.3819,0 z"
       id="path18-0-9-6-2"
       inkscape:export-xdpi="95.296425"
       inkscape:export-ydpi="95.296425" />
    <g
       id="g24-9-50-4-4"
       inkscape:export-xdpi="95.296425"
       inkscape:export-ydpi="95.296425"
       transform="matrix(0.26458333,0,0,0.26458333,59.266702,50.195223)">
      <path
         style="fill:#ffffff"
         d="m 408.004,310.441 -155.96,-65.794 c -16.891,-5.532 -24.414,-25.202 -15.528,-40.594 v 0 c 8.887,-15.392 29.683,-18.711 42.919,-6.85 l 134.96,102.168 c 6.044,4.576 0.593,14.017 -6.391,11.07 z"
         id="path22-3-4-3-7" />
    </g>
    <path
       style="fill:#ffffff;stroke-width:0.264583"
       d="m 86.782315,131.78928 41.264405,-17.40799 c 4.4691,-1.46368 6.4596,-6.66803 4.1085,-10.7405 v 0 c -2.3514,-4.072464 -7.8536,-4.950617 -11.3557,-1.81239 l -35.708104,27.03195 c -1.5992,1.21073 -0.1569,3.7084 1.690899,2.92893 z"
       id="path26-6-8-0-7"
       inkscape:export-xdpi="95.296425"
       inkscape:export-ydpi="95.296425" />
    <circle
       fill="param(fill) #FFF"
       cx="127"
       cy="108.90591"
       r="8.2020836"
       id="remplir2"
       inkscape:export-xdpi="95.296425"
       inkscape:export-ydpi="95.296425" />
  </g>
</svg>
